<svg width="16" height="16" viewBox="0 0 16 16" fill="none" xmlns="http://www.w3.org/2000/svg">
<rect width="16" height="16" fill="#00CA60"/>
<path d="M9.01042 1.30443L8.86208 1.24139C8.51395 1.09343 8.11212 1.1547 7.8239 1.39968L7.70588 1.5L7.11765 2L5.33934 3.51156C4.96212 3.8322 4.67011 4.24121 4.48937 4.70212L4.17647 5.5L3.20813 7.55773C3.07107 7.84898 3 8.16691 3 8.4888V8.95595C3 9.30109 3.15156 9.62882 3.41453 9.85235L3.974 10.3279C4.09074 10.4271 4.2622 10.4271 4.37894 10.3279C4.5561 10.1773 4.51274 9.89291 4.29875 9.80197L4.05419 9.69803C3.8402 9.60709 3.79684 9.32269 3.974 9.1721L4.01049 9.14108C4.10619 9.05974 4.24675 9.05974 4.34245 9.14108C4.5089 9.28256 4.76471 9.16427 4.76471 8.94581V8.67618C4.76471 8.56441 4.71563 8.45828 4.63047 8.3859L4.59873 8.35892C4.37742 8.17081 4.37742 7.82919 4.59873 7.64108L5.16246 7.16191C5.2833 7.0592 5.35294 6.9086 5.35294 6.75V6.7161C5.35294 6.57901 5.41314 6.44883 5.5176 6.36004C5.73872 6.17209 6.0759 6.22902 6.22304 6.47917L6.35869 6.70978C6.46647 6.893 6.48409 7.11557 6.40648 7.31347L6.03328 8.26515C5.972 8.4214 5.92493 8.58285 5.89264 8.74755L5.409 11.2141C5.37172 11.4043 5.35294 11.5976 5.35294 11.7913V12.316C5.35294 12.4376 5.37573 12.5581 5.42013 12.6713L5.75261 13.5192C5.84322 13.7502 5.67286 14 5.42469 14C5.37734 14 5.3302 14.0097 5.28663 14.0282C4.94572 14.1731 4.98903 14.6727 5.35136 14.7497L6.21344 14.9329C6.4127 14.9752 6.62033 14.9227 6.77554 14.7908L6.83253 14.7423C7.01341 14.5886 7.11765 14.3632 7.11765 14.1258V13.8671C7.11765 13.6268 7.18191 13.3907 7.30379 13.1836L7.36716 13.0758C7.57623 12.7204 7.57623 12.2796 7.36716 11.9242C7.20797 11.6535 7.16791 11.3291 7.25651 11.0279L7.69523 9.5362C7.70231 9.51216 7.71231 9.48908 7.72502 9.46747L8.04837 8.91776C8.11655 8.80186 8.29412 8.85022 8.29412 8.98468C8.29412 8.99486 8.2953 9.005 8.29763 9.01491L8.79653 11.1352C8.85161 11.3693 8.8143 11.6157 8.69236 11.823L8.54663 12.0707C8.40065 12.3189 8.45422 12.6361 8.67359 12.8226C8.80603 12.9351 8.88235 13.1002 8.88235 13.274V13.8437C8.88235 13.946 8.85499 14.0465 8.80308 14.1348L8.59236 14.493C8.46043 14.7173 8.62215 15 8.88235 15H10.6471C10.7776 15 10.814 14.821 10.6939 14.7699L10.1985 14.5594C10.1138 14.5234 10.0588 14.4402 10.0588 14.3482V13.7916C10.0588 13.6007 10.1099 13.4132 10.2067 13.2487L10.3083 13.0758C10.5174 12.7204 10.5174 12.2796 10.3083 11.9242C10.1491 11.6535 10.1091 11.3291 10.1977 11.0279L10.4241 10.2581C10.5702 9.76123 10.5847 9.23494 10.4661 8.73082L10.085 7.11119C10.0682 7.03983 10.0796 6.96474 10.1167 6.90154L10.1649 6.81973C10.2986 6.59231 10.6471 6.68719 10.6471 6.95104C10.6471 6.98339 10.6531 7.01546 10.6649 7.04558L11.1851 8.37188C11.2185 8.45716 11.2586 8.53966 11.3051 8.61861L11.6754 9.24826C11.7668 9.40364 11.7668 9.59636 11.6754 9.75174L11.3136 10.3669C11.279 10.4258 11.3214 10.5 11.3898 10.5C11.486 10.5 11.5129 10.632 11.4243 10.6697L10.9389 10.876C10.8049 10.9329 10.7777 11.111 10.8886 11.2054L11.0328 11.3279C11.1496 11.4271 11.321 11.4271 11.4378 11.3279L12.106 10.7599C12.3055 10.5903 12.4511 10.3662 12.525 10.115L12.799 9.1835C12.9272 8.74742 12.8692 8.27771 12.6388 7.88591C12.4901 7.63324 12.4118 7.34542 12.4118 7.05227V6.84591C12.4118 6.61649 12.3789 6.38825 12.3142 6.16814L11.874 4.6715C11.8405 4.55775 11.8235 4.4398 11.8235 4.32123C11.8235 3.8233 11.526 3.37355 11.0677 3.17878L10.6471 3L9.93075 2.69557C9.65174 2.57699 9.47059 2.30316 9.47059 2C9.47059 1.69684 9.28943 1.42301 9.01042 1.30443Z" fill="#FF0000" stroke="black" stroke-width="0.3"/>
</svg>
