<svg width="131" height="19" viewBox="0 0 131 19" fill="none" xmlns="http://www.w3.org/2000/svg">
<path d="M22.8157 9.13218C21.3005 4.63221 18.3157 8.63218 18.3157 9.63218C18.3157 10.6322 18.8157 13.1322 23.3157 13.6322C27.8157 14.1322 28.8157 8.13216 25.8157 5.63218C22.8157 3.13219 16.8157 4.13216 11.3157 6.63216C5.81567 9.13216 16.3156 8.13218 5.81565 12.1322C-4.68435 16.1322 4.81565 11.1322 7.81565 5.63218C10.8156 0.132176 15.8156 -1.36782 55.3156 6.13218C49.3157 15.1322 42.8157 19.1322 50.8157 17.1322C58.8157 15.1322 55.8157 12.1322 51.3157 14.6322C46.8157 17.1322 60.8157 5.13221 63.8157 4.63221C66.8157 4.13221 48.3157 5.63221 53.8157 2.13221M108.331 9.13218C109.846 4.63221 112.831 8.63218 112.831 9.63218C112.831 10.6322 112.331 13.1322 107.831 13.6322C103.331 14.1322 102.331 8.13216 105.331 5.63218C108.331 3.13219 114.331 4.13216 119.831 6.63216C125.331 9.13216 114.831 8.13218 125.331 12.1322C135.831 16.1322 126.331 11.1322 123.331 5.63218C120.331 0.132176 115.331 -1.36782 75.8313 6.13218C81.8313 15.1322 88.3313 19.1322 80.3313 17.1322C72.3313 15.1322 75.3313 12.1322 79.8313 14.6322C84.3313 17.1322 70.3313 5.13221 67.3313 4.63221C64.3313 4.13221 82.8313 5.63221 77.3313 2.13221" stroke="#80FFBD"/>
</svg>
