<svg width="130" height="72" viewBox="0 0 130 72" fill="none" xmlns="http://www.w3.org/2000/svg">
<path d="M55.3156 65.5047L55.4089 65.996L56.1502 65.8552L55.7317 65.2274L55.3156 65.5047ZM7.81565 66.0047L8.25459 65.7653L8.25459 65.7653L7.81565 66.0047ZM5.81565 59.5047L5.63765 59.972L5.63765 59.972L5.81565 59.5047ZM74.8328 65.5047L74.4168 65.2274L73.9982 65.8552L74.7395 65.996L74.8328 65.5047ZM122.333 66.0047L121.894 65.7653L121.894 65.7653L122.333 66.0047ZM124.333 59.5047L124.511 59.972L124.511 59.972L124.333 59.5047ZM64.9241 53.4114L65.3037 53.086L65.3037 53.086L64.9241 53.4114ZM59.016 46.5186L59.3956 46.1933L59.3956 46.1932L59.016 46.5186ZM58.9772 46.4909L59.1629 46.0267L59.1629 46.0266L58.9772 46.4909ZM54.0288 44.5115L53.8431 44.9758L53.8431 44.9758L54.0288 44.5115ZM53.9828 44.4742L53.5667 44.7515L53.5668 44.7515L53.9828 44.4742ZM51.1617 40.2425L51.5777 39.9652L51.5777 39.9652L51.1617 40.2425ZM51.2765 40.0922L51.4346 39.6178L51.4346 39.6178L51.2765 40.0922ZM61.4674 43.4892L61.3093 43.9635L61.3094 43.9635L61.4674 43.4892ZM61.519 43.5285L61.103 43.8059L61.103 43.8059L61.519 43.5285ZM63.3295 46.2443L62.9135 46.5216L62.9135 46.5216L63.3295 46.2443ZM63.5126 46.1929L63.013 46.1724L63.013 46.1724L63.5126 46.1929ZM65 10L65.4996 9.97947L64.5004 9.97947L65 10ZM66.4874 46.1929L66.987 46.1724L66.987 46.1724L66.4874 46.1929ZM66.6705 46.2443L67.0865 46.5216L67.0865 46.5216L66.6705 46.2443ZM68.481 43.5285L68.897 43.8059L68.897 43.8059L68.481 43.5285ZM68.5326 43.4892L68.6906 43.9635L68.6907 43.9635L68.5326 43.4892ZM78.7235 40.0922L78.5654 39.6178L78.5654 39.6178L78.7235 40.0922ZM78.8383 40.2425L78.4223 39.9652L78.4223 39.9652L78.8383 40.2425ZM76.0172 44.4742L76.4332 44.7516L76.4333 44.7515L76.0172 44.4742ZM75.9712 44.5115L76.1569 44.9758L76.1569 44.9758L75.9712 44.5115ZM71.0228 46.4909L70.8371 46.0266L70.8371 46.0267L71.0228 46.4909ZM70.984 46.5186L70.6044 46.1932L70.6044 46.1933L70.984 46.5186ZM65.0759 53.4114L64.6963 53.086L64.6963 53.086L65.0759 53.4114ZM64.5 12C64.5 12.2761 64.7239 12.5 65 12.5C65.2761 12.5 65.5 12.2761 65.5 12H65H64.5ZM67.9995 22.9783C67.9875 22.7024 67.7542 22.4885 67.4783 22.5005C67.2024 22.5125 66.9885 22.7458 67.0005 23.0217L67.5 23L67.9995 22.9783ZM67.9918 34.3106L68.4913 34.2889L68.4913 34.2889L67.9918 34.3106ZM68.1517 34.3862L68.4517 34.7862L68.4517 34.7862L68.1517 34.3862ZM69.7622 33.1784L69.4622 32.7784L69.4622 32.7784L69.7622 33.1784ZM69.9183 33.2858L69.4376 33.1485L69.4376 33.1485L69.9183 33.2858ZM67.5192 39.8626C67.4434 40.1282 67.5971 40.4049 67.8626 40.4808C68.1282 40.5566 68.4049 40.4029 68.4808 40.1374L68 40L67.5192 39.8626ZM62.9995 23.0217C63.0115 22.7458 62.7976 22.5125 62.5217 22.5005C62.2458 22.4885 62.0125 22.7024 62.0005 22.9783L62.5 23L62.9995 23.0217ZM62.0082 34.3106L61.5087 34.2889L61.5087 34.2889L62.0082 34.3106ZM61.8483 34.3862L62.1483 33.9862L62.1483 33.9862L61.8483 34.3862ZM60.2378 33.1784L59.9378 33.5784L59.9378 33.5784L60.2378 33.1784ZM60.0817 33.2858L60.5624 33.1485L60.5624 33.1485L60.0817 33.2858ZM61.5192 40.1374C61.5951 40.4029 61.8718 40.5566 62.1374 40.4808C62.4029 40.4049 62.5566 40.1282 62.4808 39.8626L62 40L61.5192 40.1374ZM65.5 5C65.5 4.72386 65.2761 4.5 65 4.5C64.7239 4.5 64.5 4.72386 64.5 5H65H65.5ZM64.5 8C64.5 8.27614 64.7239 8.5 65 8.5C65.2761 8.5 65.5 8.27614 65.5 8H65H64.5ZM64.5 2.5C64.5 2.77614 64.7239 3 65 3C65.2761 3 65.5 2.77614 65.5 2.5H65H64.5ZM65.5 1C65.5 0.723858 65.2761 0.5 65 0.5C64.7239 0.5 64.5 0.723858 64.5 1H65H65.5ZM55.3156 65.5047L55.2224 65.0135C35.4641 68.7651 24.3898 70.2537 17.8877 70.1298C14.6409 70.068 12.5904 69.6038 11.1821 68.8596C9.79222 68.125 8.97781 67.0912 8.25459 65.7653L7.81565 66.0047L7.3767 66.2442C8.15348 67.6683 9.08908 68.8845 10.7148 69.7437C12.3222 70.5932 14.5529 71.0665 17.8686 71.1296C24.4915 71.2558 35.6672 69.7444 55.4089 65.996L55.3156 65.5047ZM7.81565 66.0047L8.25459 65.7653C7.47155 64.3297 6.27725 62.9471 5.11923 61.7575C4.53778 61.1603 3.95961 60.6059 3.43977 60.1134C2.91616 59.6174 2.45974 59.1917 2.1067 58.8387C1.93085 58.6628 1.78769 58.5119 1.67921 58.3854C1.56568 58.253 1.51092 58.171 1.49085 58.1307C1.45129 58.0511 1.57283 58.2289 1.42456 58.4294C1.35705 58.5207 1.276 58.5497 1.25199 58.5566C1.22896 58.5633 1.22912 58.5588 1.26934 58.5594C1.45406 58.562 1.86467 58.6485 2.61221 58.8864C3.33805 59.1175 4.32776 59.473 5.63765 59.972L5.81565 59.5047L5.99364 59.0375C4.67854 58.5365 3.66825 58.1732 2.91557 57.9336C2.18459 57.7009 1.63817 57.5646 1.28383 57.5595C1.18929 57.5581 1.0808 57.5651 0.973635 57.5961C0.865483 57.6275 0.724806 57.6938 0.62055 57.8348C0.398798 58.1346 0.538406 58.4613 0.595524 58.5761C0.672136 58.7301 0.792661 58.8878 0.920097 59.0364C1.05258 59.1909 1.21607 59.3623 1.39959 59.5458C1.76531 59.9115 2.23857 60.353 2.75207 60.8394C3.26934 61.3294 3.8357 61.8727 4.40269 62.4551C5.54155 63.6249 6.65974 64.9297 7.3767 66.2442L7.81565 66.0047ZM5.81565 59.5047L5.63765 59.972C8.27152 60.9754 9.50045 61.6358 10.0013 62.0757C10.2504 62.2945 10.2188 62.3712 10.2202 62.3274C10.2213 62.2928 10.2413 62.324 10.1062 62.4456C10.0462 62.4996 9.97414 62.5553 9.88584 62.6216C9.80359 62.6834 9.70123 62.7586 9.60873 62.8349C9.44706 62.9684 9.17145 63.2142 9.11781 63.5808C9.05653 63.9996 9.30246 64.338 9.608 64.5965C9.92136 64.8615 10.4094 65.1421 11.1088 65.4599L11.3157 65.0048L11.5226 64.5496C10.8469 64.2424 10.46 64.0074 10.2538 63.833C10.0398 63.652 10.1217 63.6271 10.1073 63.7256C10.1005 63.7718 10.0827 63.7404 10.2453 63.6062C10.3149 63.5487 10.3912 63.4926 10.4862 63.4213C10.5752 63.3546 10.6789 63.2755 10.7751 63.1889C10.9525 63.0293 11.2069 62.7558 11.2197 62.3598C11.2328 61.9547 10.9903 61.6134 10.6612 61.3244C10.0058 60.7487 8.60978 60.0341 5.99364 59.0375L5.81565 59.5047ZM11.3157 65.0048L11.1088 65.4599C13.8932 66.7256 16.8225 67.6206 19.4546 67.8774C22.0724 68.1328 24.4854 67.7641 26.1358 66.3888L25.8157 66.0047L25.4956 65.6206C24.1459 66.7453 22.059 67.1267 19.5517 66.8821C17.0588 66.6389 14.2382 65.7839 11.5226 64.5496L11.3157 65.0048ZM25.8157 66.0047L26.1358 66.3888C27.8057 64.9973 28.3397 62.6644 27.8632 60.7585C27.6228 59.7968 27.1179 58.9106 26.3345 58.2983C25.5437 57.6802 24.5046 57.3696 23.2605 57.5078L23.3157 58.0048L23.3709 58.5017C24.3768 58.3899 25.1501 58.6418 25.7187 59.0862C26.2947 59.5364 26.696 60.2127 26.8931 61.001C27.2916 62.5951 26.8257 64.5122 25.4956 65.6206L25.8157 66.0047ZM23.3157 58.0048L23.2605 57.5078C20.9206 57.7678 19.538 58.5589 18.7465 59.4943C17.9596 60.4242 17.8157 61.4277 17.8157 62.0047H18.3157H18.8157C18.8157 61.5818 18.9217 60.8353 19.5099 60.1402C20.0934 59.4506 21.2107 58.7417 23.3709 58.5017L23.3157 58.0048ZM18.3157 62.0047H17.8157C17.8157 62.2316 17.894 62.4782 17.9877 62.6957C18.0868 62.9258 18.2258 63.1744 18.3926 63.4191C18.7223 63.9029 19.1915 64.416 19.7399 64.7457C20.2926 65.0781 20.9943 65.2581 21.6938 64.9144C22.3644 64.5849 22.8946 63.8372 23.2895 62.6643L22.8157 62.5047L22.3418 62.3452C21.9791 63.4223 21.5681 63.862 21.2528 64.0169C20.9666 64.1576 20.638 64.1189 20.2551 63.8887C19.8679 63.6559 19.4962 63.2628 19.2189 62.8559C19.0822 62.6553 18.9761 62.4625 18.9061 62.3C18.8307 62.125 18.8157 62.0278 18.8157 62.0047H18.3157ZM55.3156 65.5047L55.7317 65.2274C54.2184 62.9574 52.6752 61.0052 51.3419 59.3896C49.9966 57.7594 48.8953 56.5065 48.2189 55.584C47.8768 55.1175 47.6862 54.7908 47.6174 54.5789C47.584 54.4759 47.5973 54.4524 47.5918 54.4753C47.588 54.4907 47.5793 54.5111 47.5643 54.53C47.55 54.5479 47.539 54.5534 47.5429 54.5512C47.5579 54.5428 47.623 54.5157 47.7808 54.5047C47.933 54.4942 48.1392 54.5006 48.4105 54.5309C48.9533 54.5916 49.7012 54.7415 50.6944 54.9898L50.8157 54.5047L50.9369 54.0197C49.9302 53.768 49.1312 53.6053 48.5216 53.5371C48.2167 53.503 47.9454 53.4909 47.7114 53.5072C47.4829 53.523 47.2531 53.5682 47.0572 53.677C46.8431 53.796 46.6817 53.9859 46.6202 54.2387C46.5643 54.4682 46.604 54.6957 46.6663 54.8876C46.7889 55.2655 47.0671 55.7044 47.4125 56.1754C48.111 57.128 49.2597 58.4376 50.5706 60.0261C51.8936 61.6292 53.413 63.5521 54.8996 65.7821L55.3156 65.5047ZM50.8157 54.5047L50.6944 54.9898C52.6679 55.4832 53.9168 56.0279 54.6214 56.5047C54.9755 56.7444 55.1619 56.9467 55.2457 57.0884C55.286 57.1565 55.296 57.1995 55.2983 57.2185C55.2994 57.2277 55.2988 57.2322 55.2986 57.2331C55.2985 57.234 55.2984 57.2344 55.298 57.2353C55.2975 57.2365 55.2632 57.3036 55.0798 57.3675C54.9027 57.4293 54.6368 57.468 54.2857 57.4506C53.5868 57.416 52.6296 57.1627 51.5585 56.5676L51.3157 57.0047L51.0729 57.4418C52.2517 58.0967 53.357 58.4059 54.2363 58.4494C54.6742 58.4711 55.0763 58.4278 55.409 58.3118C55.7353 58.198 56.0526 57.9917 56.2084 57.6491C56.3728 57.2874 56.2992 56.9052 56.1064 56.5793C55.9187 56.2619 55.6012 55.9604 55.1818 55.6766C54.3396 55.1066 52.9635 54.5263 50.9369 54.0197L50.8157 54.5047ZM51.3157 57.0047L51.5585 56.5676C51.2712 56.408 51.0308 56.2907 50.8436 56.2265C50.7553 56.1963 50.6388 56.1634 50.5173 56.1625C50.4061 56.1617 50.1203 56.1945 49.9848 56.4844C49.8797 56.7092 49.9594 56.9189 49.9848 56.9821C50.0224 57.0758 50.0773 57.1648 50.13 57.2409C50.238 57.397 50.3954 57.5817 50.5824 57.7827C51.3321 58.5889 52.7749 59.8872 54.4338 61.2644C56.0976 62.6457 57.9999 64.1237 59.6788 65.2903C60.5178 65.8732 61.3076 66.383 61.9879 66.7649C62.6511 67.1372 63.2646 67.4198 63.7335 67.4979L63.8157 67.0047L63.8979 66.5115C63.6167 66.4646 63.1365 66.2629 62.4774 65.8929C61.8355 65.5326 61.0745 65.0424 60.2494 64.4691C58.6002 63.3232 56.7212 61.8637 55.0726 60.495C53.419 59.1222 52.018 57.858 51.3146 57.1017C51.1383 56.9121 51.0193 56.7687 50.9523 56.6718C50.9174 56.6215 50.9101 56.6028 50.9127 56.6093C50.9142 56.613 50.9248 56.6393 50.9296 56.682C50.9343 56.7242 50.9364 56.8101 50.8907 56.9078C50.7762 57.1528 50.5403 57.1627 50.5098 57.1625C50.4689 57.1622 50.4638 57.1535 50.5194 57.1725C50.6201 57.207 50.7977 57.2889 51.0729 57.4418L51.3157 57.0047ZM63.8157 67.0047L63.7335 67.4979C63.8236 67.5129 63.8859 67.5248 63.9258 67.5338C63.992 67.5487 63.9511 67.5458 63.8911 67.5119C63.8737 67.502 63.8114 67.4663 63.7541 67.3942C63.6862 67.3088 63.6008 67.1323 63.6756 66.9214C63.7346 66.7551 63.8585 66.6799 63.8912 66.661C63.9369 66.6345 63.9752 66.6227 63.9884 66.6188C64.0293 66.6067 64.0459 66.6095 63.9889 66.6132C63.8059 66.6252 63.3768 66.6221 62.7517 66.6141C61.5287 66.5985 59.6563 66.567 57.8606 66.63C56.9626 66.6615 56.0761 66.7169 55.294 66.811C54.5207 66.9041 53.8149 67.0388 53.2968 67.2425C53.0394 67.3437 52.7897 67.4765 52.6025 67.6609C52.4031 67.8571 52.2619 68.1282 52.2913 68.4574C52.3184 68.7604 52.4834 69.0236 52.6871 69.2444C52.895 69.4698 53.1844 69.6956 53.5472 69.9265L53.8157 69.5047L54.0841 69.0829C53.7594 68.8763 53.5488 68.7037 53.4221 68.5663C53.291 68.4242 53.2866 68.3603 53.2873 68.3684C53.2904 68.4027 53.2658 68.4111 53.304 68.3734C53.3543 68.3239 53.4631 68.2516 53.6627 68.1732C54.0587 68.0175 54.6615 67.8944 55.4135 67.8039C56.1568 67.7144 57.0125 67.6604 57.8957 67.6294C59.6625 67.5674 61.5089 67.5984 62.739 67.614C63.3405 67.6217 63.8216 67.6264 64.0545 67.611C64.1016 67.608 64.1912 67.6016 64.2717 67.5779C64.2947 67.5711 64.3408 67.5562 64.3921 67.5265C64.4304 67.5043 64.5578 67.4257 64.618 67.2558C64.6941 67.0413 64.6078 66.8611 64.5367 66.7717C64.4763 66.6957 64.4086 66.6557 64.3835 66.6415C64.2929 66.5903 64.1849 66.5671 64.1449 66.5581C64.0785 66.5432 63.9953 66.5277 63.8979 66.5115L63.8157 67.0047ZM74.8328 65.5047L74.7395 65.996C94.4813 69.7444 105.657 71.2558 112.28 71.1296C115.596 71.0665 117.826 70.5932 119.434 69.7437C121.059 68.8845 121.995 67.6683 122.772 66.2442L122.333 66.0047L121.894 65.7653C121.171 67.0912 120.356 68.125 118.966 68.8596C117.558 69.6038 115.508 70.068 112.261 70.1298C105.759 70.2537 94.6843 68.7651 74.9261 65.0135L74.8328 65.5047ZM122.333 66.0047L122.772 66.2442C123.489 64.9297 124.607 63.6249 125.746 62.4551C126.313 61.8727 126.879 61.3294 127.396 60.8394C127.91 60.353 128.383 59.9115 128.749 59.5458C128.932 59.3623 129.096 59.1909 129.228 59.0364C129.356 58.8878 129.476 58.7301 129.553 58.5761C129.61 58.4613 129.75 58.1346 129.528 57.8348C129.424 57.6938 129.283 57.6275 129.175 57.5961C129.068 57.5651 128.959 57.5581 128.865 57.5595C128.51 57.5646 127.964 57.7009 127.233 57.9336C126.48 58.1732 125.47 58.5365 124.155 59.0375L124.333 59.5047L124.511 59.972C125.821 59.473 126.81 59.1175 127.536 58.8864C128.284 58.6485 128.694 58.562 128.879 58.5594C128.919 58.5588 128.919 58.5633 128.896 58.5566C128.872 58.5497 128.791 58.5207 128.724 58.4294C128.576 58.2289 128.697 58.0511 128.658 58.1307C128.638 58.171 128.583 58.253 128.469 58.3854C128.361 58.5119 128.218 58.6628 128.042 58.8387C127.689 59.1917 127.232 59.6174 126.709 60.1134C126.189 60.6059 125.611 61.1603 125.029 61.7575C123.871 62.9471 122.677 64.3297 121.894 65.7653L122.333 66.0047ZM124.333 59.5047L124.155 59.0375C121.539 60.0341 120.143 60.7487 119.487 61.3244C119.158 61.6134 118.916 61.9547 118.929 62.3598C118.942 62.7558 119.196 63.0293 119.373 63.1889C119.47 63.2755 119.573 63.3546 119.662 63.4213C119.757 63.4926 119.834 63.5487 119.903 63.6062C120.066 63.7403 120.048 63.7718 120.041 63.7256C120.027 63.6271 120.109 63.652 119.895 63.833C119.688 64.0074 119.302 64.2424 118.626 64.5496L118.833 65.0048L119.04 65.4599C119.739 65.1421 120.227 64.8615 120.54 64.5965C120.846 64.338 121.092 63.9996 121.031 63.5808C120.977 63.2142 120.701 62.9684 120.54 62.8349C120.447 62.7586 120.345 62.6834 120.263 62.6216C120.174 62.5553 120.102 62.4996 120.042 62.4456C119.907 62.324 119.927 62.2928 119.928 62.3274C119.93 62.3712 119.898 62.2945 120.147 62.0757C120.648 61.6358 121.877 60.9754 124.511 59.972L124.333 59.5047ZM118.833 65.0048L118.626 64.5496C115.91 65.7839 113.09 66.6389 110.597 66.8821C108.089 67.1267 106.003 66.7453 104.653 65.6206L104.333 66.0047L104.013 66.3888C105.663 67.7641 108.076 68.1328 110.694 67.8774C113.326 67.6206 116.255 66.7256 119.04 65.4599L118.833 65.0048ZM104.333 66.0047L104.653 65.6206C103.323 64.5122 102.857 62.5951 103.255 61.001C103.452 60.2127 103.854 59.5364 104.43 59.0862C104.998 58.6418 105.772 58.3899 106.778 58.5017L106.833 58.0048L106.888 57.5078C105.644 57.3696 104.605 57.6802 103.814 58.2983C103.031 58.9106 102.526 59.7968 102.285 60.7585C101.809 62.6644 102.343 64.9973 104.013 66.3888L104.333 66.0047ZM106.833 58.0048L106.778 58.5017C108.938 58.7417 110.055 59.4506 110.639 60.1402C111.227 60.8353 111.333 61.5818 111.333 62.0047H111.833H112.333C112.333 61.4277 112.189 60.4242 111.402 59.4943C110.61 58.5589 109.228 57.7678 106.888 57.5078L106.833 58.0048ZM111.833 62.0047H111.333C111.333 62.0278 111.318 62.125 111.242 62.3C111.172 62.4625 111.066 62.6553 110.93 62.8559C110.652 63.2628 110.281 63.6559 109.893 63.8887C109.51 64.1189 109.182 64.1576 108.896 64.0169C108.58 63.862 108.169 63.4223 107.807 62.3452L107.333 62.5047L106.859 62.6643C107.254 63.8372 107.784 64.5849 108.455 64.9144C109.154 65.2581 109.856 65.0781 110.409 64.7457C110.957 64.416 111.426 63.9029 111.756 63.4191C111.923 63.1744 112.062 62.9258 112.161 62.6957C112.254 62.4782 112.333 62.2316 112.333 62.0047H111.833ZM74.8328 65.5047L75.2488 65.7821C76.7355 63.5521 78.2548 61.6292 79.5778 60.0261C80.8887 58.4376 82.0374 57.128 82.736 56.1754C83.0814 55.7044 83.3595 55.2655 83.4822 54.8876C83.5445 54.6957 83.5842 54.4682 83.5283 54.2387C83.4667 53.9859 83.3053 53.796 83.0912 53.677C82.8953 53.5682 82.6655 53.523 82.437 53.5072C82.203 53.4909 81.9317 53.503 81.6268 53.5371C81.0172 53.6053 80.2183 53.768 79.2115 54.0197L79.3328 54.5047L79.454 54.9898C80.4473 54.7415 81.1952 54.5916 81.738 54.5309C82.0092 54.5006 82.2154 54.4942 82.3677 54.5047C82.5254 54.5157 82.5905 54.5428 82.6056 54.5512C82.6095 54.5534 82.5984 54.5479 82.5842 54.53C82.5692 54.5111 82.5604 54.4907 82.5567 54.4753C82.5511 54.4524 82.5644 54.4759 82.531 54.5789C82.4623 54.7908 82.2717 55.1175 81.9296 55.5841C81.2531 56.5065 80.1518 57.7594 78.8065 59.3896C77.4732 61.0052 75.9301 62.9574 74.4168 65.2274L74.8328 65.5047ZM79.3328 54.5047L79.2115 54.0197C77.185 54.5263 75.8089 55.1066 74.9666 55.6766C74.5473 55.9604 74.2298 56.2619 74.0421 56.5793C73.8493 56.9052 73.7756 57.2874 73.9401 57.6491C74.0958 57.9917 74.4131 58.198 74.7394 58.3118C75.0721 58.4278 75.4742 58.4711 75.9122 58.4494C76.7914 58.4059 77.8967 58.0967 79.0756 57.4418L78.8328 57.0047L78.5899 56.5676C77.5188 57.1627 76.5616 57.416 75.8627 57.4506C75.5116 57.468 75.2458 57.4293 75.0687 57.3675C74.8852 57.3036 74.851 57.2365 74.8504 57.2353C74.85 57.2344 74.8499 57.234 74.8498 57.2331C74.8497 57.2322 74.8491 57.2277 74.8502 57.2185C74.8524 57.1995 74.8625 57.1565 74.9028 57.0884C74.9866 56.9467 75.173 56.7444 75.5271 56.5047C76.2317 56.0279 77.4806 55.4832 79.454 54.9898L79.3328 54.5047ZM78.8328 57.0047L79.0756 57.4418C79.3508 57.2889 79.5283 57.207 79.629 57.1725C79.6847 57.1535 79.6796 57.1622 79.6387 57.1625C79.6081 57.1627 79.3722 57.1528 79.2577 56.9078C79.2121 56.8101 79.2141 56.7242 79.2188 56.682C79.2237 56.6393 79.2342 56.613 79.2357 56.6093C79.2383 56.6028 79.231 56.6215 79.1962 56.6718C79.1291 56.7687 79.0101 56.9121 78.8338 57.1017C78.1304 57.858 76.7295 59.1222 75.0759 60.495C73.4272 61.8637 71.5482 63.3232 69.899 64.4691C69.0739 65.0424 68.3129 65.5326 67.671 65.8929C67.012 66.2629 66.5317 66.4646 66.2506 66.5115L66.3328 67.0047L66.415 67.4979C66.8838 67.4198 67.4973 67.1372 68.1605 66.7649C68.8409 66.383 69.6307 65.8732 70.4696 65.2903C72.1485 64.1237 74.0508 62.6457 75.7146 61.2644C77.3736 59.8872 78.8163 58.5889 79.5661 57.7827C79.7531 57.5817 79.9104 57.397 80.0184 57.2409C80.0711 57.1648 80.126 57.0758 80.1637 56.9821C80.189 56.9189 80.2687 56.7092 80.1637 56.4844C80.0281 56.1945 79.7424 56.1617 79.6311 56.1625C79.5096 56.1634 79.3931 56.1963 79.3048 56.2265C79.1176 56.2907 78.8773 56.408 78.5899 56.5676L78.8328 57.0047ZM66.3328 67.0047L66.2506 66.5115C66.1532 66.5277 66.07 66.5432 66.0036 66.5581C65.9635 66.5671 65.8555 66.5903 65.7649 66.6415C65.7398 66.6557 65.6722 66.6957 65.6117 66.7717C65.5406 66.8611 65.4543 67.0413 65.5304 67.2558C65.5907 67.4257 65.718 67.5043 65.7563 67.5265C65.8076 67.5562 65.8537 67.5711 65.8768 67.5779C65.9572 67.6016 66.0469 67.608 66.0939 67.611C66.3269 67.6264 66.808 67.6217 67.4094 67.614C68.6396 67.5984 70.4859 67.5674 72.2527 67.6294C73.136 67.6604 73.9916 67.7144 74.7349 67.8039C75.487 67.8944 76.0898 68.0175 76.4858 68.1732C76.6854 68.2516 76.7941 68.3239 76.8444 68.3734C76.8826 68.4111 76.8581 68.4027 76.8611 68.3684C76.8618 68.3603 76.8574 68.4242 76.7264 68.5663C76.5996 68.7037 76.389 68.8763 76.0643 69.0829L76.3328 69.5047L76.6012 69.9265C76.964 69.6956 77.2534 69.4698 77.4614 69.2444C77.665 69.0236 77.8301 68.7604 77.8571 68.4574C77.8866 68.1282 77.7453 67.8571 77.546 67.6609C77.3587 67.4765 77.1091 67.3437 76.8517 67.2425C76.3336 67.0388 75.6278 66.9041 74.8544 66.811C74.0723 66.7169 73.1858 66.6615 72.2878 66.63C70.4921 66.567 68.6197 66.5985 67.3967 66.6141C66.7716 66.6221 66.3426 66.6252 66.1595 66.6132C66.1025 66.6095 66.1191 66.6067 66.1601 66.6188C66.1733 66.6227 66.2116 66.6345 66.2573 66.661C66.29 66.6799 66.4138 66.7551 66.4729 66.9214C66.5476 67.1323 66.4623 67.3088 66.3943 67.3942C66.337 67.4663 66.2748 67.502 66.2573 67.5119C66.1973 67.5458 66.1564 67.5487 66.2226 67.5338C66.2626 67.5248 66.3249 67.5129 66.415 67.4979L66.3328 67.0047ZM64.9241 53.4114L65.3037 53.086L59.3956 46.1933L59.016 46.5186L58.6364 46.844L64.5444 53.7368L64.9241 53.4114ZM58.9772 46.4909L59.1629 46.0266L54.2145 44.0473L54.0288 44.5115L53.8431 44.9758L58.7915 46.9551L58.9772 46.4909ZM53.9828 44.4742L54.3988 44.1968L51.5777 39.9652L51.1617 40.2425L50.7456 40.5199L53.5667 44.7515L53.9828 44.4742ZM51.2765 40.0922L51.1184 40.5665L61.3093 43.9635L61.4674 43.4892L61.6256 43.0148L51.4346 39.6178L51.2765 40.0922ZM61.519 43.5285L61.103 43.8059L62.9135 46.5216L63.3295 46.2443L63.7455 45.9669L61.9351 43.2512L61.519 43.5285ZM63.5126 46.1929L64.0122 46.2134L65.4996 10.0205L65 10L64.5004 9.97947L63.013 46.1724L63.5126 46.1929ZM65 10L64.5004 10.0205L65.9878 46.2134L66.4874 46.1929L66.987 46.1724L65.4996 9.97947L65 10ZM66.6705 46.2443L67.0865 46.5216L68.897 43.8059L68.481 43.5285L68.0649 43.2512L66.2545 45.9669L66.6705 46.2443ZM68.5326 43.4892L68.6907 43.9635L78.8816 40.5665L78.7235 40.0922L78.5654 39.6178L68.3744 43.0148L68.5326 43.4892ZM78.8383 40.2425L78.4223 39.9652L75.6012 44.1968L76.0172 44.4742L76.4333 44.7515L79.2544 40.5199L78.8383 40.2425ZM75.9712 44.5115L75.7855 44.0473L70.8371 46.0266L71.0228 46.4909L71.2085 46.9551L76.1569 44.9758L75.9712 44.5115ZM70.984 46.5186L70.6044 46.1933L64.6963 53.086L65.0759 53.4114L65.4556 53.7368L71.3636 46.844L70.984 46.5186ZM76.0172 44.4742L75.6012 44.1968C75.6461 44.1295 75.7103 44.0774 75.7854 44.0473L75.9712 44.5115L76.1569 44.9758C76.2695 44.9307 76.3659 44.8525 76.4332 44.7516L76.0172 44.4742ZM78.7235 40.0922L78.8816 40.5665C78.5203 40.6869 78.211 40.2821 78.4223 39.9652L78.8383 40.2425L79.2544 40.5199C79.5713 40.0445 79.1074 39.4372 78.5654 39.6178L78.7235 40.0922ZM68.481 43.5285L68.897 43.8059C68.8477 43.8799 68.775 43.9354 68.6906 43.9635L68.5326 43.4892L68.3745 43.0148C68.2479 43.057 68.1389 43.1402 68.0649 43.2512L68.481 43.5285ZM66.4874 46.1929L65.9878 46.2134C66.0117 46.7939 66.7642 47.005 67.0865 46.5216L66.6705 46.2443L66.2545 45.9669C66.4693 45.6446 66.9711 45.7854 66.987 46.1724L66.4874 46.1929ZM63.3295 46.2443L62.9135 46.5216C63.2358 47.005 63.9883 46.7939 64.0122 46.2134L63.5126 46.1929L63.013 46.1724C63.0289 45.7854 63.5307 45.6446 63.7455 45.9669L63.3295 46.2443ZM61.4674 43.4892L61.3094 43.9635C61.225 43.9354 61.1523 43.8799 61.103 43.8059L61.519 43.5285L61.9351 43.2512C61.8611 43.1402 61.7521 43.057 61.6255 43.0148L61.4674 43.4892ZM51.1617 40.2425L51.5777 39.9652C51.7889 40.282 51.4797 40.687 51.1184 40.5665L51.2765 40.0922L51.4346 39.6178C50.8926 39.4372 50.4288 40.0445 50.7456 40.5199L51.1617 40.2425ZM54.0288 44.5115L54.2146 44.0473C54.2896 44.0773 54.3539 44.1294 54.3988 44.1968L53.9828 44.4742L53.5668 44.7515C53.6341 44.8525 53.7305 44.9307 53.8431 44.9758L54.0288 44.5115ZM59.016 46.5186L59.3956 46.1932C59.3326 46.1197 59.2527 46.0626 59.1629 46.0267L58.9772 46.4909L58.7915 46.9551C58.7316 46.9312 58.6784 46.8931 58.6364 46.8441L59.016 46.5186ZM71.0228 46.4909L70.8371 46.0267C70.7473 46.0626 70.6674 46.1197 70.6044 46.1932L70.984 46.5186L71.3636 46.8441C71.3216 46.8931 71.2684 46.9312 71.2085 46.9551L71.0228 46.4909ZM64.9241 53.4114L64.5444 53.7368C64.7839 54.0162 65.2161 54.0162 65.4556 53.7368L65.0759 53.4114L64.6963 53.086C64.8559 52.8998 65.1441 52.8998 65.3037 53.086L64.9241 53.4114ZM67.5 23L67.0005 23.0217L67.4922 34.3323L67.9918 34.3106L68.4913 34.2889L67.9995 22.9783L67.5 23ZM68.1517 34.3862L68.4517 34.7862L70.0622 33.5784L69.7622 33.1784L69.4622 32.7784L67.8517 33.9862L68.1517 34.3862ZM69.9183 33.2858L69.4376 33.1485L67.5192 39.8626L68 40L68.4808 40.1374L70.3991 33.4232L69.9183 33.2858ZM69.7622 33.1784L70.0622 33.5784C69.7556 33.8083 69.3323 33.5171 69.4376 33.1485L69.9183 33.2858L70.3991 33.4232C70.5571 32.8703 69.9221 32.4334 69.4622 32.7784L69.7622 33.1784ZM67.9918 34.3106L67.4922 34.3323C67.5132 34.8144 68.0657 35.0757 68.4517 34.7862L68.1517 34.3862L67.8517 33.9862C68.109 33.7933 68.4773 33.9675 68.4913 34.2889L67.9918 34.3106ZM62.5 23L62.0005 22.9783L61.5087 34.2889L62.0082 34.3106L62.5078 34.3323L62.9995 23.0217L62.5 23ZM61.8483 34.3862L62.1483 33.9862L60.5378 32.7784L60.2378 33.1784L59.9378 33.5784L61.5483 34.7862L61.8483 34.3862ZM60.0817 33.2858L59.6009 33.4232L61.5192 40.1374L62 40L62.4808 39.8626L60.5624 33.1485L60.0817 33.2858ZM65 5H64.5V8H65H65.5V5H65ZM60.2378 33.1784L60.5378 32.7784C60.0779 32.4334 59.443 32.8704 59.6009 33.4232L60.0817 33.2858L60.5624 33.1485C60.6677 33.517 60.2444 33.8083 59.9378 33.5784L60.2378 33.1784ZM62.0082 34.3106L61.5087 34.2889C61.5227 33.9675 61.891 33.7933 62.1483 33.9862L61.8483 34.3862L61.5483 34.7862C61.9343 35.0757 62.4868 34.8144 62.5078 34.3323L62.0082 34.3106ZM65 2.5H65.5V1H65H64.5V2.5H65ZM65 10H64.5V12H65H65.5V10H65Z" fill="#80FFBD"/>
</svg>
